PathFileType	4	(X/Y/Z)	s05c0403.trc
DataRate	CameraRate	NumFrames	NumMarkers	Units	OrigDataRate	OrigDataStartFrame	OrigNumFrames
200	200	4	49	mm	200	750	2000
Frame#	Time	racr			lacr			c7			jug			rlel			rdr			llel			ldr			s2			lic			ric			lasi			rasi			rpsi			lpsi			rgt			lgt			rth1			rth2			rth3			rth4			rlfc			rsh1			rsh2			rsh3			rsh4			rlmal			rmmal			rcal			rtoe			rmt5			lth1			lth2			lth4			lth3			llfc			lmfc			lsh1			lsh2			lsh3			lsh4			llmal			lmmal			lcal			ltoe			lmt5			SBIKE			LBIKE			RBIKE			
		X1	Y1	Z1	X2	Y2	Z2	X3	Y3	Z3	X4	Y4	Z4	X5	Y5	Z5	X6	Y6	Z6	X7	Y7	Z7	X8	Y8	Z8	X9	Y9	Z9	X10	Y10	Z10	X11	Y11	Z11	X12	Y12	Z12	X13	Y13	Z13	X14	Y14	Z14	X15	Y15	Z15	X16	Y16	Z16	X17	Y17	Z17	X18	Y18	Z18	X19	Y19	Z19	X20	Y20	Z20	X21	Y21	Z21	X22	Y22	Z22	X23	Y23	Z23	X24	Y24	Z24	X25	Y25	Z25	X26	Y26	Z26	X27	Y27	Z27	X28	Y28	Z28	X29	Y29	Z29	X30	Y30	Z30	X31	Y31	Z31	X32	Y32	Z32	X33	Y33	Z33	X34	Y34	Z34	X35	Y35	Z35	X36	Y36	Z36	X37	Y37	Z37	X38	Y38	Z38	X39	Y39	Z39	X40	Y40	Z40	X41	Y41	Z41	X42	Y42	Z42	X43	Y43	Z43	X44	Y44	Z44	X45	Y45	Z45	X46	Y46	Z46	X47	Y47	Z47	X48	Y48	Z48	X49	Y49	Z49	
750	3.7500	841.771995	1260.642921	-141.909394	820.551910	1265.131307	-454.674703	834.424181	1354.953690	-307.014864	770.901422	1195.204063	-295.801371	626.190396	1147.644356	42.332084	689.040832	949.661701	-43.041715	566.187499	1169.472156	-616.383047	672.585551	966.141640	-521.678170	239.862485	1257.467698	-245.063134	374.740706	1228.917639	-396.731667	395.386116	1247.411491	-112.773894	409.486872	1166.501072	-362.093489	411.022957	1176.716349	-140.753728	287.585407	1295.399420	-207.829552	287.056979	1293.175025	-294.854415	319.473764	1123.839240	-79.484804	283.036246	1146.154330	-414.409358	394.776181	1026.362596	-68.132139	460.715551	966.857532	-75.327767	486.516124	882.809325	-80.460539	488.540578	985.926048	-89.180332	542.642308	751.956554	-111.105040	438.895663	722.372029	-81.160847	368.873297	668.742294	-95.901442	284.973599	653.787227	-97.767740	382.797364	645.254768	-122.747386	164.457003	598.193574	-105.028891	195.850791	607.650533	-185.222097	104.978652	647.918559	-149.889796	195.955246	366.473769	-163.844781	139.105604	447.515488	-93.371178	318.473397	1004.960814	-442.171578	363.600161	932.473551	-441.719728	399.091637	941.224479	-432.221808	364.334202	841.729527	-442.612319	391.589595	701.685810	-416.965121	377.006488	687.024823	-313.277376	325.130943	592.158639	-449.044832	316.930942	505.397744	-440.934927	265.379137	432.984578	-443.235147	345.630694	496.523842	-416.763698	228.920136	318.292582	-439.842758	274.186503	347.788242	-369.050428	161.934689	305.747379	-397.394853	419.552178	162.381461	-404.558702	309.893490	183.100032	-467.109723	-169.287325	899.463950	-274.628391	-53.288517	79.055929	-474.617984	-53.279638	79.333743	-77.011590	
751	3.7550	841.928274	1261.004387	-139.070756	821.688915	1266.789631	-451.622929	834.732343	1355.899008	-303.348302	771.256057	1196.060960	-293.191130	625.146765	1146.824185	42.840657	688.768477	949.772224	-43.344863	568.780052	1171.106385	-615.158333	673.464025	966.271909	-521.774028	239.389059	1255.525013	-248.275672	376.556380	1225.333110	-397.837922	393.247056	1248.180390	-114.306493	410.325611	1164.198778	-362.848055	409.843017	1177.369160	-141.623198	286.090147	1294.233171	-211.455869	288.140414	1290.248575	-297.657419	318.786254	1124.947151	-80.264835	283.666116	1142.173039	-415.069846	396.429240	1029.252679	-67.746424	463.983254	971.376708	-74.829615	492.306320	888.328564	-79.406459	492.376111	991.014696	-89.227138	551.717122	758.916840	-109.850588	448.034689	729.149491	-80.483551	377.991568	675.608243	-95.503065	294.185263	660.653778	-97.779610	392.065753	651.808117	-122.103465	173.825146	604.680976	-105.518447	205.318319	614.049370	-185.487604	114.603328	654.463319	-150.253806	204.989764	372.886478	-164.030952	148.364606	454.002071	-93.701764	316.569217	1000.730795	-442.520779	359.587672	926.865780	-441.123563	395.198588	934.771924	-431.420649	356.584253	836.516998	-441.978914	381.511507	695.968093	-415.556606	365.206246	681.523755	-312.368125	315.580313	586.657202	-448.516050	307.885582	499.852722	-440.365236	256.759603	427.084753	-442.799902	336.489994	491.023418	-415.988302	221.530727	312.846511	-439.669373	269.180450	343.706190	-368.866792	154.712324	300.954848	-397.228237	410.803185	154.666465	-404.323448	301.445234	176.761164	-466.885522	-169.337958	899.418151	-274.781292	-53.294460	79.043693	-474.607481	-53.278832	79.341769	-77.004274	
752	3.7600	841.960928	1261.261438	-136.313725	822.699089	1268.453789	-448.543959	834.890760	1356.524241	-299.907266	771.504224	1196.835564	-290.621393	624.152740	1146.022299	43.386129	688.609966	949.948782	-43.546092	571.603132	1172.463678	-614.037630	674.677495	966.280604	-521.757215	238.841733	1253.377444	-251.511722	378.475658	1221.875521	-399.159803	391.056516	1248.888730	-115.986294	412.038435	1160.993857	-363.391300	408.781244	1177.936677	-142.421737	284.815328	1292.728190	-214.671605	287.995148	1287.617276	-300.880957	317.963313	1125.965428	-80.949983	284.472492	1138.221783	-415.739566	397.760626	1032.196662	-67.852598	467.188191	976.625438	-73.741516	497.611685	894.084165	-78.159521	494.401228	996.995588	-87.915991	560.427716	766.183732	-108.428207	456.877421	736.086429	-79.831239	387.082562	682.478639	-95.032256	302.890722	667.662416	-97.933050	401.140171	658.395895	-121.546962	183.253842	610.546838	-105.960687	214.892014	619.981575	-185.803231	123.926215	660.225410	-150.818806	214.722856	378.879833	-164.181416	158.351130	460.067446	-93.569697	314.661407	996.574741	-442.763500	355.571430	921.620174	-440.699477	391.281193	928.497839	-430.702085	351.603602	831.004888	-440.645151	371.460357	690.836480	-414.573501	353.265305	676.410119	-311.738259	305.985578	581.630172	-448.188730	298.661572	494.938510	-440.021296	247.883368	421.872076	-442.556125	327.225952	486.257214	-415.610369	213.823153	307.917821	-439.518937	263.977585	340.178657	-368.669863	147.089878	296.893995	-397.218586	401.660815	147.574044	-404.061290	292.578407	170.884860	-466.680092	-169.335491	899.441344	-274.825195	-53.313029	79.038834	-474.622664	-53.286357	79.353863	-77.003559	
753	3.7650	842.106160	1261.457486	-133.320047	823.615925	1270.125686	-445.412320	835.009797	1357.095438	-296.462964	771.654073	1197.543134	-287.926240	623.038042	1145.079734	44.210166	688.544796	950.187541	-43.556720	574.492132	1173.701526	-612.921625	676.188208	966.104029	-521.698742	238.395554	1251.298662	-254.781779	380.553120	1218.475598	-400.146237	388.881199	1249.549114	-117.723171	413.558600	1157.440100	-361.844662	407.654051	1178.426498	-143.186044	283.608695	1291.220113	-218.300369	288.125142	1285.051862	-304.204570	317.164467	1127.070220	-81.598810	285.406823	1134.373376	-416.452856	398.914162	1035.233001	-68.177411	469.984386	981.706582	-73.042073	502.596684	899.955074	-76.926200	496.279792	1002.943458	-87.038945	568.876078	773.660142	-107.031438	465.529637	743.145366	-79.062774	395.992918	689.323406	-94.629257	311.870952	674.229281	-97.867096	410.294571	665.095997	-120.735379	192.623020	616.035440	-106.437185	224.342527	625.475471	-186.047057	132.968822	665.174293	-151.260044	224.386559	383.974904	-164.821781	167.910179	465.339458	-94.361186	312.845844	992.673657	-442.931045	351.652411	916.683935	-440.525648	387.351442	922.629749	-429.979525	345.171698	826.373418	-440.279499	361.524190	686.246056	-413.927538	341.094393	672.217179	-311.378162	296.446775	577.368985	-448.287628	289.266751	490.820380	-440.011264	238.756028	417.511747	-442.588454	317.868458	482.123887	-415.529613	205.791910	303.554093	-439.603417	258.601944	337.194660	-368.461743	139.275373	293.429430	-397.369349	392.118059	141.113756	-403.899744	283.331226	165.686069	-466.503361	-169.193804	899.437734	-274.738161	-53.317294	79.040146	-474.634253	-53.291855	79.347794	-77.011786	
